<svg id="timeqode" xmlns="http://www.w3.org/2000/svg" width="284" height="52.431" viewBox="0 0 284 52.431">
  <path id="Path_2" data-name="Path 2" d="M16.318,0a4.153,4.153,0,1,0,4.153,4.153A4.165,4.165,0,0,0,16.318,0Z" transform="translate(8.06)" fill="#8721f4"/>
  <path id="Path_3" data-name="Path 3" d="M16.318,24.305a4.153,4.153,0,1,0,4.153,4.153A4.165,4.165,0,0,0,16.318,24.305Z" transform="translate(8.06 16.995)" fill="#0bddd7"/>
  <circle id="Ellipse_1" data-name="Ellipse 1" cx="4.153" cy="4.153" r="4.153" transform="translate(37.709 10.342)" fill="#e038b8"/>
  <path id="Path_4" data-name="Path 4" d="M26.835,18.235a4.153,4.153,0,1,0,4.153,4.153A4.165,4.165,0,0,0,26.835,18.235Z" transform="translate(15.027 12.707)" fill="#dd2f5d"/>
  <path id="Path_5" data-name="Path 5" d="M5.777,6.07A4.153,4.153,0,1,0,9.93,10.223,4.165,4.165,0,0,0,5.777,6.07Z" transform="translate(1.076 4.23)" fill="#274ef4"/>
  <path id="Path_6" data-name="Path 6" d="M5.777,18.235A4.153,4.153,0,1,0,9.93,22.388,4.165,4.165,0,0,0,5.777,18.235Z" transform="translate(1.076 12.707)" fill="#009ff7"/>
  <rect id="Rectangle_36" data-name="Rectangle 36" width="8.347" height="3.239" transform="translate(31.009 9.669) rotate(-59.999)" fill="#b722d1"/>
  <path id="Path_7" data-name="Path 7" d="M21.459,22.532,18.635,24.11l4.153,7.226,2.824-1.62Z" transform="translate(12.346 15.82)" fill="#27ffc6"/>
  <rect id="Rectangle_37" data-name="Rectangle 37" width="3.239" height="8.347" transform="translate(10.794 4.059) rotate(-30.001)" fill="#4a27f4"/>
  <rect id="Rectangle_38" data-name="Rectangle 38" width="8.347" height="3.239" transform="translate(10.77 45.558) rotate(-59.999)" fill="#00e0f7"/>
  <rect id="Rectangle_39" data-name="Rectangle 39" width="8.348" height="3.239" transform="translate(40.409 23.179)" fill="#e82394"/>
  <rect id="Rectangle_40" data-name="Rectangle 40" width="8.348" height="3.239" transform="translate(0 23.179)" fill="#0b7aff"/>
  <path id="Path_8" data-name="Path 8" d="M94.907,8.9A13.393,13.393,0,1,0,106.535,29l.208-.374H99.724l-.042.042a7.941,7.941,0,0,1-4.776,1.578,8.034,8.034,0,0,1-7.226-4.568c-.125-.249-.208-.457-.291-.664h20.64l.042-.208A13.407,13.407,0,0,0,97.44,9.1,10.445,10.445,0,0,0,94.907,8.9Zm7.475,10.673H87.39a7.359,7.359,0,0,1,.623-1.287,7.983,7.983,0,0,1,10.881-2.866,7.9,7.9,0,0,1,2.866,2.866A6.165,6.165,0,0,1,102.382,19.57Z" transform="translate(56.867 6.42)"/>
  <path id="Path_9" data-name="Path 9" d="M177.65,18.078a13.394,13.394,0,0,0-26.122,4.236,13.012,13.012,0,0,0,.5,3.572,13.4,13.4,0,0,0,16.446,9.386,13.2,13.2,0,0,0,8.057-6.229l.208-.374h-6.977l-.083.042a8.064,8.064,0,0,1-12-3.032c-.125-.249-.208-.457-.291-.664h20.64l.042-.208a12.785,12.785,0,0,0,.249-2.533A13.039,13.039,0,0,0,177.65,18.078Zm-19.6.166a8.032,8.032,0,0,1,10.922-2.866,7.878,7.878,0,0,1,3.447,4.153H157.425A12.018,12.018,0,0,1,158.048,18.244Z" transform="translate(105.685 6.419)"/>
  <rect id="Rectangle_41" data-name="Rectangle 41" width="5.44" height="26.33" transform="translate(87.251 15.781)"/>
  <path id="Path_10" data-name="Path 10" d="M155.4,15.465a13.153,13.153,0,0,0-7.974-2.658,13.414,13.414,0,1,0,12.916,16.986,12.446,12.446,0,0,0,.457-3.239V2.923h-5.4V15.465Zm-1.246,13.954h0a7.431,7.431,0,0,1-13.456,0A7.6,7.6,0,0,1,140,26.262a7.436,7.436,0,0,1,14.868,0A7.6,7.6,0,0,1,154.159,29.419Z" transform="translate(94.084 1.936)"/>
  <path id="Path_11" data-name="Path 11" d="M112.409,8.893A13.435,13.435,0,0,0,99,22.307a13.01,13.01,0,0,0,.5,3.572,13.42,13.42,0,0,0,12.916,9.843,13.153,13.153,0,0,0,7.974-2.658V45.647h5.44V22.265A13.373,13.373,0,0,0,112.409,8.893Zm0,20.807a7.463,7.463,0,0,1-6.728-4.278,7.6,7.6,0,0,1-.706-3.156,7.436,7.436,0,0,1,14.868,0,7.6,7.6,0,0,1-.706,3.156h0A7.373,7.373,0,0,1,112.409,29.7Z" transform="translate(69.046 6.784)"/>
  <path id="Path_12" data-name="Path 12" d="M129.92,8.893a13.435,13.435,0,0,0-13.414,13.414,13.01,13.01,0,0,0,.5,3.572A13.4,13.4,0,1,0,129.92,8.893Zm-6.811,10.175a7.54,7.54,0,0,1,10.05-3.613,7.629,7.629,0,0,1,3.613,3.613,7.18,7.18,0,0,1,.706,3.2,7.558,7.558,0,0,1-15.117,0,7.224,7.224,0,0,1,.748-3.2Z" transform="translate(81.26 6.425)"/>
  <path id="Path_13" data-name="Path 13" d="M94.789,19.293A10.664,10.664,0,0,0,83.909,8.869a10.827,10.827,0,0,0-7.725,3.572A10.6,10.6,0,0,0,61.15,11.61a10.739,10.739,0,0,0-3.572,7.932V35.7h5.4V19.542A5.214,5.214,0,1,1,73.4,19.251V35.7h5.44V19.542a5.254,5.254,0,0,1,10.507,0V35.7h5.44v-16.4Z" transform="translate(40.246 6.407)"/>
  <path id="Path_14" data-name="Path 14" d="M54.547,2.923A3.613,3.613,0,1,0,58.16,6.536h0A3.67,3.67,0,0,0,54.547,2.923Z" transform="translate(35.396 1.936)"/>
  <path id="Path_15" data-name="Path 15" d="M47.62,28.622V18.447h7.808v-5.44H47.62V3.122H42.18v9.884H34.372v5.44H42.18V28.622A10.652,10.652,0,0,0,52.812,39.254H58v-5.4H52.812a5.2,5.2,0,0,1-5.191-5.233Z" transform="translate(23.959 2.069)"/>
</svg>
